<mxfile host="app.diagrams.net" modified="2024-03-29T22:54:24.312Z" agent="Mozilla/5.0 (Windows NT 10.0; Win64; x64) AppleWebKit/537.36 (KHTML, like Gecko) Chrome/123.0.0.0 Safari/537.36 Edg/123.0.0.0" etag="xPhe1anewRyK8zpSEI2b" version="24.2.1" type="github">
  <diagram name="PÃ¡gina-1" unidadeId="JnUDqEXEhcX_nH1SR8nV">
    <mxGraphModel dx="2253" dy="1920" grid="1" gridSize="10" guides="1" tooltips="1" connect="1" arrows="1" fold="1" page="1" pageScale="1" pageWidth="827" pageHeight="1169" math="0" shadow="0">
      <root>
        <mxCell unidadeId="0" />
        <mxCell unidadeId="1" parent="0" />
        <mxCell unidadeId="3fZJjKLncM8EVCZoAQM8-3" style="rounded=0;orthogonalLoop=1;jettySize=auto;html=1;endArrow=none;endFill=0;entryX=0;entryY=0.5;entryDx=0;entryDy=0;exitX=1;exitY=0.5;exitDx=0;exitDy=0;" parent="1" source="3fZJjKLncM8EVCZoAQM8-1" target="3fZJjKLncM8EVCZoAQM8-4" edge="1">
          <mxGeometry relative="1" as="geometry">
            <mxPoint x="270" y="270" as="targetPoint" />
            <mxPoint x="220" y="290" as="sourcePoint" />
          </mxGeometry>
        </mxCell>
        <mxCell unidadeId="3fZJjKLncM8EVCZoAQM8-10" style="rounded=0;orthogonalLoop=1;jettySize=auto;html=1;exitX=0;exitY=0;exitDx=0;exitDy=0;endArrow=oval;endFill=1;entryX=1.044;entryY=0.489;entryDx=0;entryDy=0;entryPerimeter=0;" parent="1" source="3fZJjKLncM8EVCZoAQM8-1" target="3fZJjKLncM8EVCZoAQM8-11" edge="1">
          <mxGeometry relative="1" as="geometry">
            <mxPoint x="60" y="260" as="targetPoint" />
          </mxGeometry>
        </mxCell>
        <mxCell unidadeId="3fZJjKLncM8EVCZoAQM8-12" style="rounded=0;orthogonalLoop=1;jettySize=auto;html=1;exitX=0;exitY=0.25;exitDx=0;exitDy=0;endArrow=oval;endFill=0;entryX=1.012;entryY=0.474;entryDx=0;entryDy=0;entryPerimeter=0;" parent="1" source="3fZJjKLncM8EVCZoAQM8-1" target="3fZJjKLncM8EVCZoAQM8-13" edge="1">
          <mxGeometry relative="1" as="geometry">
            <mxPoint x="40" y="280.1428571428571" as="targetPoint" />
          </mxGeometry>
        </mxCell>
        <mxCell unidadeId="3fZJjKLncM8EVCZoAQM8-18" style="rounded=0;orthogonalLoop=1;jettySize=auto;html=1;exitX=0;exitY=0.5;exitDx=0;exitDy=0;endArrow=oval;endFill=0;entryX=1.009;entryY=0.496;entryDx=0;entryDy=0;entryPerimeter=0;" parent="1" source="3fZJjKLncM8EVCZoAQM8-1" target="3fZJjKLncM8EVCZoAQM8-19" edge="1">
          <mxGeometry relative="1" as="geometry">
            <mxPoint x="40" y="300.1428571428571" as="targetPoint" />
          </mxGeometry>
        </mxCell>
        <mxCell unidadeId="3fZJjKLncM8EVCZoAQM8-1" value="Unidade" style="whiteSpace=wrap;html=1;align=center;" parent="1" vertex="1">
          <mxGeometry x="80" y="240" width="120" height="80" as="geometry" />
        </mxCell>
        <mxCell unidadeId="3fZJjKLncM8EVCZoAQM8-5" style="rounded=0;orthogonalLoop=1;jettySize=auto;html=1;endArrow=none;endFill=0;exitX=1;exitY=0.5;exitDx=0;exitDy=0;entryX=0;entryY=0.5;entryDx=0;entryDy=0;" parent="1" source="3fZJjKLncM8EVCZoAQM8-4" target="3fZJjKLncM8EVCZoAQM8-6" edge="1">
          <mxGeometry relative="1" as="geometry">
            <mxPoint x="440" y="280" as="targetPoint" />
            <mxPoint x="370" y="270" as="sourcePoint" />
          </mxGeometry>
        </mxCell>
        <mxCell unidadeId="3fZJjKLncM8EVCZoAQM8-4" value="" style="shape=rhombus;perimeter=rhombusPerimeter;whiteSpace=wrap;html=1;align=center;" parent="1" vertex="1">
          <mxGeometry x="280" y="260" width="80" height="40" as="geometry" />
        </mxCell>
        <mxCell unidadeId="3fZJjKLncM8EVCZoAQM8-21" style="rounded=0;orthogonalLoop=1;jettySize=auto;html=1;endArrow=oval;endFill=1;exitX=1;exitY=0;exitDx=0;exitDy=0;" parent="1" source="3fZJjKLncM8EVCZoAQM8-6" target="3fZJjKLncM8EVCZoAQM8-22" edge="1">
          <mxGeometry relative="1" as="geometry">
            <mxPoint x="680" y="160" as="targetPoint" />
          </mxGeometry>
        </mxCell>
        <mxCell unidadeId="3fZJjKLncM8EVCZoAQM8-25" style="rounded=0;orthogonalLoop=1;jettySize=auto;html=1;endArrow=oval;endFill=0;entryX=0.006;entryY=0.478;entryDx=0;entryDy=0;entryPerimeter=0;exitX=1.002;exitY=0.084;exitDx=0;exitDy=0;exitPerimeter=0;" parent="1" source="3fZJjKLncM8EVCZoAQM8-6" target="3fZJjKLncM8EVCZoAQM8-24" edge="1">
          <mxGeometry relative="1" as="geometry">
            <mxPoint x="610" y="180" as="sourcePoint" />
            <mxPoint x="680" y="179.4666666666667" as="targetPoint" />
          </mxGeometry>
        </mxCell>
        <mxCell unidadeId="3fZJjKLncM8EVCZoAQM8-26" style="rounded=0;orthogonalLoop=1;jettySize=auto;html=1;endArrow=oval;endFill=0;exitX=1;exitY=0.25;exitDx=0;exitDy=0;entryX=0.002;entryY=0.523;entryDx=0;entryDy=0;entryPerimeter=0;" parent="1" source="3fZJjKLncM8EVCZoAQM8-6" target="3fZJjKLncM8EVCZoAQM8-23" edge="1">
          <mxGeometry relative="1" as="geometry" />
        </mxCell>
        <mxCell unidadeId="3fZJjKLncM8EVCZoAQM8-28" style="rounded=0;orthogonalLoop=1;jettySize=auto;html=1;exitX=1.001;exitY=0.333;exitDx=0;exitDy=0;endArrow=oval;endFill=0;exitPerimeter=0;entryX=-0.001;entryY=0.527;entryDx=0;entryDy=0;entryPerimeter=0;" parent="1" source="3fZJjKLncM8EVCZoAQM8-6" target="3fZJjKLncM8EVCZoAQM8-27" edge="1">
          <mxGeometry relative="1" as="geometry" />
        </mxCell>
        <mxCell unidadeId="3fZJjKLncM8EVCZoAQM8-58" style="rounded=0;orthogonalLoop=1;jettySize=auto;html=1;exitX=1;exitY=0.5;exitDx=0;exitDy=0;endArrow=oval;endFill=0;entryX=-0.004;entryY=0.522;entryDx=0;entryDy=0;entryPerimeter=0;" parent="1" source="3fZJjKLncM8EVCZoAQM8-6" target="3fZJjKLncM8EVCZoAQM8-59" edge="1">
          <mxGeometry relative="1" as="geometry">
            <mxPoint x="680" y="360" as="targetPoint" />
          </mxGeometry>
        </mxCell>
        <mxCell unidadeId="3fZJjKLncM8EVCZoAQM8-60" style="rounded=0;orthogonalLoop=1;jettySize=auto;html=1;exitX=1.002;exitY=0.667;exitDx=0;exitDy=0;endArrow=oval;endFill=0;exitPerimeter=0;entryX=-0.002;entryY=0.483;entryDx=0;entryDy=0;entryPerimeter=0;" parent="1" source="3fZJjKLncM8EVCZoAQM8-6" target="3fZJjKLncM8EVCZoAQM8-61" edge="1">
          <mxGeometry relative="1" as="geometry">
            <mxPoint x="680" y="430" as="targetPoint" />
          </mxGeometry>
        </mxCell>
        <mxCell unidadeId="3fZJjKLncM8EVCZoAQM8-76" style="rounded=0;orthogonalLoop=1;jettySize=auto;html=1;endArrow=oval;endFill=0;exitX=1;exitY=0.165;exitDx=0;exitDy=0;exitPerimeter=0;entryX=0.003;entryY=0.504;entryDx=0;entryDy=0;entryPerimeter=0;" parent="1" source="3fZJjKLncM8EVCZoAQM8-6" target="3fZJjKLncM8EVCZoAQM8-77" edge="1">
          <mxGeometry relative="1" as="geometry">
            <mxPoint x="690" y="230" as="targetPoint" />
            <mxPoint x="599.9999999999998" y="187.08000000000015" as="sourcePoint" />
          </mxGeometry>
        </mxCell>
        <mxCell unidadeId="3fZJjKLncM8EVCZoAQM8-78" style="rounded=0;orthogonalLoop=1;jettySize=auto;html=1;exitX=0.999;exitY=0.586;exitDx=0;exitDy=0;endArrow=oval;endFill=0;exitPerimeter=0;entryX=-0.001;entryY=0.52;entryDx=0;entryDy=0;entryPerimeter=0;" parent="1" source="3fZJjKLncM8EVCZoAQM8-6" target="3fZJjKLncM8EVCZoAQM8-79" edge="1">
          <mxGeometry relative="1" as="geometry">
            <mxPoint x="680" y="380" as="targetPoint" />
          </mxGeometry>
        </mxCell>
        <mxCell unidadeId="3fZJjKLncM8EVCZoAQM8-6" value="Item" style="whiteSpace=wrap;html=1;align=center;" parent="1" vertex="1">
          <mxGeometry x="440" y="160" width="160" height="240" as="geometry" />
        </mxCell>
        <mxCell unidadeId="3fZJjKLncM8EVCZoAQM8-7" style="rounded=0;orthogonalLoop=1;jettySize=auto;html=1;endArrow=none;endFill=0;" parent="1" target="3fZJjKLncM8EVCZoAQM8-6" edge="1">
          <mxGeometry relative="1" as="geometry" />
        </mxCell>
        <mxCell unidadeId="3fZJjKLncM8EVCZoAQM8-8" value="(1,1)" style="text;html=1;align=center;verticalAlign=middle;resizable=0;points=[];autosize=1;strokeColor=none;fillColor=none;" parent="1" vertex="1">
          <mxGeometry x="200" y="250" width="50" height="30" as="geometry" />
        </mxCell>
        <mxCell unidadeId="3fZJjKLncM8EVCZoAQM8-9" value="(1,N)" style="text;html=1;align=center;verticalAlign=middle;resizable=0;points=[];autosize=1;strokeColor=none;fillColor=none;" parent="1" vertex="1">
          <mxGeometry x="389" y="280" width="50" height="30" as="geometry" />
        </mxCell>
        <mxCell unidadeId="3fZJjKLncM8EVCZoAQM8-11" value="unidadeId" style="text;html=1;align=center;verticalAlign=middle;resizable=0;points=[];autosize=1;strokeColor=none;fillColor=none;" parent="1" vertex="1">
          <mxGeometry x="9" y="225" width="30" height="30" as="geometry" />
        </mxCell>
        <mxCell unidadeId="3fZJjKLncM8EVCZoAQM8-13" value="abreviacao" style="text;html=1;align=center;verticalAlign=middle;resizable=0;points=[];autosize=1;strokeColor=none;fillColor=none;" parent="1" vertex="1">
          <mxGeometry x="-40" y="246" width="80" height="30" as="geometry" />
        </mxCell>
        <mxCell unidadeId="3fZJjKLncM8EVCZoAQM8-19" value="nome" style="text;html=1;align=center;verticalAlign=middle;resizable=0;points=[];autosize=1;strokeColor=none;fillColor=none;" parent="1" vertex="1">
          <mxGeometry x="-10" y="265" width="50" height="30" as="geometry" />
        </mxCell>
        <mxCell unidadeId="3fZJjKLncM8EVCZoAQM8-22" value="unidadeId" style="text;html=1;align=center;verticalAlign=middle;resizable=0;points=[];autosize=1;strokeColor=none;fillColor=none;" parent="1" vertex="1">
          <mxGeometry x="680" y="146" width="30" height="30" as="geometry" />
        </mxCell>
        <mxCell unidadeId="3fZJjKLncM8EVCZoAQM8-23" value="descricao_item" style="text;html=1;align=center;verticalAlign=middle;resizable=0;points=[];autosize=1;strokeColor=none;fillColor=none;" parent="1" vertex="1">
          <mxGeometry x="680" y="204" width="100" height="30" as="geometry" />
        </mxCell>
        <mxCell unidadeId="3fZJjKLncM8EVCZoAQM8-24" value="codigo_interno unique" style="text;html=1;align=center;verticalAlign=middle;resizable=0;points=[];autosize=1;strokeColor=none;fillColor=none;" parent="1" vertex="1">
          <mxGeometry x="680" y="166" width="140" height="30" as="geometry" />
        </mxCell>
        <mxCell unidadeId="3fZJjKLncM8EVCZoAQM8-27" value="codigo_fabricante" style="text;html=1;align=center;verticalAlign=middle;resizable=0;points=[];autosize=1;strokeColor=none;fillColor=none;" parent="1" vertex="1">
          <mxGeometry x="680" y="224" width="120" height="30" as="geometry" />
        </mxCell>
        <mxCell unidadeId="3fZJjKLncM8EVCZoAQM8-34" style="rounded=0;orthogonalLoop=1;jettySize=auto;html=1;entryX=1;entryY=0.5;entryDx=0;entryDy=0;endArrow=none;endFill=0;exitX=0.75;exitY=1;exitDx=0;exitDy=0;" parent="1" source="3fZJjKLncM8EVCZoAQM8-31" target="3fZJjKLncM8EVCZoAQM8-33" edge="1">
          <mxGeometry relative="1" as="geometry" />
        </mxCell>
        <mxCell unidadeId="3fZJjKLncM8EVCZoAQM8-35" style="rounded=0;orthogonalLoop=1;jettySize=auto;html=1;endArrow=none;endFill=0;exitX=0;exitY=0.5;exitDx=0;exitDy=0;entryX=0.25;entryY=1;entryDx=0;entryDy=0;" parent="1" source="3fZJjKLncM8EVCZoAQM8-33" target="3fZJjKLncM8EVCZoAQM8-31" edge="1">
          <mxGeometry relative="1" as="geometry">
            <mxPoint x="175" y="600" as="targetPoint" />
          </mxGeometry>
        </mxCell>
        <mxCell unidadeId="3fZJjKLncM8EVCZoAQM8-47" style="rounded=0;orthogonalLoop=1;jettySize=auto;html=1;exitX=0.5;exitY=1;exitDx=0;exitDy=0;endArrow=oval;endFill=0;" parent="1" source="3fZJjKLncM8EVCZoAQM8-33" target="3fZJjKLncM8EVCZoAQM8-44" edge="1">
          <mxGeometry relative="1" as="geometry" />
        </mxCell>
        <mxCell unidadeId="3fZJjKLncM8EVCZoAQM8-33" value="" style="shape=rhombus;perimeter=rhombusPerimeter;whiteSpace=wrap;html=1;align=center;" parent="1" vertex="1">
          <mxGeometry x="195" y="678" width="60" height="40" as="geometry" />
        </mxCell>
        <mxCell unidadeId="3fZJjKLncM8EVCZoAQM8-42" value="unidadeId" style="text;html=1;align=center;verticalAlign=middle;resizable=0;points=[];autosize=1;strokeColor=none;fillColor=none;" parent="1" vertex="1">
          <mxGeometry x="320" y="545" width="30" height="30" as="geometry" />
        </mxCell>
        <mxCell unidadeId="3fZJjKLncM8EVCZoAQM8-44" value="id_grupo references grupo(unidadeId) NULLABLE" style="text;html=1;align=center;verticalAlign=middle;resizable=0;points=[];autosize=1;strokeColor=none;fillColor=none;" parent="1" vertex="1">
          <mxGeometry x="100" y="750" width="250" height="30" as="geometry" />
        </mxCell>
        <mxCell unidadeId="3fZJjKLncM8EVCZoAQM8-41" style="rounded=0;orthogonalLoop=1;jettySize=auto;html=1;endArrow=oval;endFill=1;exitX=1;exitY=0;exitDx=0;exitDy=0;entryX=0.012;entryY=0.503;entryDx=0;entryDy=0;entryPerimeter=0;" parent="1" source="3fZJjKLncM8EVCZoAQM8-31" target="3fZJjKLncM8EVCZoAQM8-42" edge="1">
          <mxGeometry relative="1" as="geometry">
            <mxPoint x="315" y="538" as="targetPoint" />
            <mxPoint x="290" y="560" as="sourcePoint" />
          </mxGeometry>
        </mxCell>
        <mxCell unidadeId="3fZJjKLncM8EVCZoAQM8-49" value="nome" style="text;html=1;align=center;verticalAlign=middle;resizable=0;points=[];autosize=1;strokeColor=none;fillColor=none;" parent="1" vertex="1">
          <mxGeometry x="322" y="565" width="50" height="30" as="geometry" />
        </mxCell>
        <mxCell unidadeId="3fZJjKLncM8EVCZoAQM8-48" style="rounded=0;orthogonalLoop=1;jettySize=auto;html=1;endArrow=oval;endFill=0;exitX=1;exitY=0.25;exitDx=0;exitDy=0;entryX=-0.04;entryY=0.5;entryDx=0;entryDy=0;entryPerimeter=0;" parent="1" source="3fZJjKLncM8EVCZoAQM8-31" target="3fZJjKLncM8EVCZoAQM8-49" edge="1">
          <mxGeometry relative="1" as="geometry">
            <mxPoint x="310" y="609.8181818181818" as="targetPoint" />
            <mxPoint x="285" y="606.6363636363637" as="sourcePoint" />
          </mxGeometry>
        </mxCell>
        <mxCell unidadeId="3fZJjKLncM8EVCZoAQM8-31" value="Grupo" style="whiteSpace=wrap;html=1;align=center;" parent="1" vertex="1">
          <mxGeometry x="165" y="560" width="120" height="80" as="geometry" />
        </mxCell>
        <mxCell unidadeId="Jcm4aYiwaMw8JLBFLebt-7" style="edgeStyle=orthogonalEdgeStyle;rounded=0;orthogonalLoop=1;jettySize=auto;html=1;entryX=0.25;entryY=1;entryDx=0;entryDy=0;endArrow=none;endFill=0;" edge="1" parent="1" source="3fZJjKLncM8EVCZoAQM8-51" target="3fZJjKLncM8EVCZoAQM8-6">
          <mxGeometry relative="1" as="geometry">
            <mxPoint x="460" y="450" as="targetPoint" />
          </mxGeometry>
        </mxCell>
        <mxCell unidadeId="Jcm4aYiwaMw8JLBFLebt-9" style="edgeStyle=orthogonalEdgeStyle;rounded=0;orthogonalLoop=1;jettySize=auto;html=1;entryX=0.5;entryY=0;entryDx=0;entryDy=0;endArrow=none;endFill=0;" edge="1" parent="1" source="3fZJjKLncM8EVCZoAQM8-51" target="3fZJjKLncM8EVCZoAQM8-31">
          <mxGeometry relative="1" as="geometry" />
        </mxCell>
        <mxCell unidadeId="3fZJjKLncM8EVCZoAQM8-51" value="" style="shape=rhombus;perimeter=rhombusPerimeter;whiteSpace=wrap;html=1;align=center;direction=south;rotation=90;" parent="1" vertex="1">
          <mxGeometry x="340" y="440" width="40" height="80" as="geometry" />
        </mxCell>
        <mxCell unidadeId="3fZJjKLncM8EVCZoAQM8-56" value="(1,1)" style="text;html=1;align=center;verticalAlign=middle;resizable=0;points=[];autosize=1;strokeColor=none;fillColor=none;" parent="1" vertex="1">
          <mxGeometry x="225" y="528" width="50" height="30" as="geometry" />
        </mxCell>
        <mxCell unidadeId="3fZJjKLncM8EVCZoAQM8-57" value="(0,N)" style="text;html=1;align=center;verticalAlign=middle;resizable=0;points=[];autosize=1;strokeColor=none;fillColor=none;" parent="1" vertex="1">
          <mxGeometry x="430" y="400" width="50" height="30" as="geometry" />
        </mxCell>
        <mxCell unidadeId="3fZJjKLncM8EVCZoAQM8-59" value="observacao" style="text;html=1;align=center;verticalAlign=middle;resizable=0;points=[];autosize=1;strokeColor=none;fillColor=none;" parent="1" vertex="1">
          <mxGeometry x="680" y="264" width="90" height="30" as="geometry" />
        </mxCell>
        <mxCell unidadeId="3fZJjKLncM8EVCZoAQM8-61" value="alto_giro" style="text;html=1;align=center;verticalAlign=middle;resizable=0;points=[];autosize=1;strokeColor=none;fillColor=none;" parent="1" vertex="1">
          <mxGeometry x="680" y="306" width="70" height="30" as="geometry" />
        </mxCell>
        <mxCell unidadeId="3fZJjKLncM8EVCZoAQM8-68" style="rounded=0;orthogonalLoop=1;jettySize=auto;html=1;endArrow=oval;endFill=1;exitX=1;exitY=0;exitDx=0;exitDy=0;entryX=-0.018;entryY=0.496;entryDx=0;entryDy=0;entryPerimeter=0;" parent="1" source="3fZJjKLncM8EVCZoAQM8-62" target="3fZJjKLncM8EVCZoAQM8-69" edge="1">
          <mxGeometry relative="1" as="geometry">
            <mxPoint x="610" y="-80" as="targetPoint" />
            <mxPoint x="590" y="-70" as="sourcePoint" />
          </mxGeometry>
        </mxCell>
        <mxCell unidadeId="3fZJjKLncM8EVCZoAQM8-73" style="rounded=0;orthogonalLoop=1;jettySize=auto;html=1;endArrow=oval;endFill=0;exitX=1;exitY=0.25;exitDx=0;exitDy=0;entryX=-0.002;entryY=0.477;entryDx=0;entryDy=0;entryPerimeter=0;" parent="1" source="3fZJjKLncM8EVCZoAQM8-62" target="3fZJjKLncM8EVCZoAQM8-70" edge="1">
          <mxGeometry relative="1" as="geometry">
            <mxPoint x="610" y="-60" as="targetPoint" />
          </mxGeometry>
        </mxCell>
        <mxCell unidadeId="3fZJjKLncM8EVCZoAQM8-62" value="Item_Foto" style="whiteSpace=wrap;html=1;align=center;" parent="1" vertex="1">
          <mxGeometry x="460" y="-80" width="120" height="80" as="geometry" />
        </mxCell>
        <mxCell unidadeId="Jcm4aYiwaMw8JLBFLebt-28" style="edgeStyle=orthogonalEdgeStyle;rounded=0;orthogonalLoop=1;jettySize=auto;html=1;entryX=0.5;entryY=0;entryDx=0;entryDy=0;endArrow=none;endFill=0;" edge="1" parent="1" source="3fZJjKLncM8EVCZoAQM8-63" target="3fZJjKLncM8EVCZoAQM8-6">
          <mxGeometry relative="1" as="geometry" />
        </mxCell>
        <mxCell unidadeId="3fZJjKLncM8EVCZoAQM8-63" value="" style="shape=rhombus;perimeter=rhombusPerimeter;whiteSpace=wrap;html=1;align=center;direction=south;" parent="1" vertex="1">
          <mxGeometry x="500" y="40" width="40" height="80" as="geometry" />
        </mxCell>
        <mxCell unidadeId="3fZJjKLncM8EVCZoAQM8-66" value="(0,N)" style="text;html=1;align=center;verticalAlign=middle;resizable=0;points=[];autosize=1;strokeColor=none;fillColor=none;" parent="1" vertex="1">
          <mxGeometry x="470" width="50" height="30" as="geometry" />
        </mxCell>
        <mxCell unidadeId="3fZJjKLncM8EVCZoAQM8-67" value="(1,1)" style="text;html=1;align=center;verticalAlign=middle;resizable=0;points=[];autosize=1;strokeColor=none;fillColor=none;" parent="1" vertex="1">
          <mxGeometry x="520" y="130" width="50" height="30" as="geometry" />
        </mxCell>
        <mxCell unidadeId="3fZJjKLncM8EVCZoAQM8-69" value="unidadeId" style="text;html=1;align=center;verticalAlign=middle;resizable=0;points=[];autosize=1;strokeColor=none;fillColor=none;" parent="1" vertex="1">
          <mxGeometry x="610" y="-95" width="30" height="30" as="geometry" />
        </mxCell>
        <mxCell unidadeId="3fZJjKLncM8EVCZoAQM8-70" value="nome_arquivo" style="text;html=1;align=center;verticalAlign=middle;resizable=0;points=[];autosize=1;strokeColor=none;fillColor=none;" parent="1" vertex="1">
          <mxGeometry x="609" y="-74" width="100" height="30" as="geometry" />
        </mxCell>
        <mxCell unidadeId="3fZJjKLncM8EVCZoAQM8-71" style="rounded=0;orthogonalLoop=1;jettySize=auto;html=1;endArrow=oval;endFill=0;exitX=1;exitY=0.417;exitDx=0;exitDy=0;exitPerimeter=0;entryX=0.006;entryY=0.486;entryDx=0;entryDy=0;entryPerimeter=0;" parent="1" source="3fZJjKLncM8EVCZoAQM8-6" target="3fZJjKLncM8EVCZoAQM8-72" edge="1">
          <mxGeometry relative="1" as="geometry">
            <mxPoint x="690" y="370" as="targetPoint" />
            <mxPoint x="610" y="370" as="sourcePoint" />
          </mxGeometry>
        </mxCell>
        <mxCell unidadeId="3fZJjKLncM8EVCZoAQM8-72" value="uuid" style="text;html=1;align=center;verticalAlign=middle;resizable=0;points=[];autosize=1;strokeColor=none;fillColor=none;" parent="1" vertex="1">
          <mxGeometry x="680" y="245" width="50" height="30" as="geometry" />
        </mxCell>
        <mxCell unidadeId="3fZJjKLncM8EVCZoAQM8-74" value="(1,1)" style="text;html=1;align=center;verticalAlign=middle;resizable=0;points=[];autosize=1;strokeColor=none;fillColor=none;" parent="1" vertex="1">
          <mxGeometry x="145" y="640" width="50" height="30" as="geometry" />
        </mxCell>
        <mxCell unidadeId="3fZJjKLncM8EVCZoAQM8-75" value="(1,N)" style="text;html=1;align=center;verticalAlign=middle;resizable=0;points=[];autosize=1;strokeColor=none;fillColor=none;" parent="1" vertex="1">
          <mxGeometry x="255" y="640" width="50" height="30" as="geometry" />
        </mxCell>
        <mxCell unidadeId="3fZJjKLncM8EVCZoAQM8-77" value="nome_item" style="text;html=1;align=center;verticalAlign=middle;resizable=0;points=[];autosize=1;strokeColor=none;fillColor=none;" parent="1" vertex="1">
          <mxGeometry x="680" y="185" width="80" height="30" as="geometry" />
        </mxCell>
        <mxCell unidadeId="3fZJjKLncM8EVCZoAQM8-79" value="estoque_minimo" style="text;html=1;align=center;verticalAlign=middle;resizable=0;points=[];autosize=1;strokeColor=none;fillColor=none;" parent="1" vertex="1">
          <mxGeometry x="680" y="285" width="110" height="30" as="geometry" />
        </mxCell>
        <mxCell unidadeId="3fZJjKLncM8EVCZoAQM8-88" style="rounded=0;orthogonalLoop=1;jettySize=auto;html=1;endArrow=oval;endFill=1;exitX=1;exitY=0;exitDx=0;exitDy=0;entryX=0.018;entryY=0.473;entryDx=0;entryDy=0;entryPerimeter=0;" parent="1" source="3fZJjKLncM8EVCZoAQM8-81" target="3fZJjKLncM8EVCZoAQM8-90" edge="1">
          <mxGeometry relative="1" as="geometry">
            <mxPoint x="880" y="570" as="targetPoint" />
            <mxPoint x="840" y="560" as="sourcePoint" />
          </mxGeometry>
        </mxCell>
        <mxCell unidadeId="3fZJjKLncM8EVCZoAQM8-89" style="rounded=0;orthogonalLoop=1;jettySize=auto;html=1;endArrow=oval;endFill=0;exitX=1;exitY=0.25;exitDx=0;exitDy=0;entryX=0.011;entryY=0.504;entryDx=0;entryDy=0;entryPerimeter=0;" parent="1" source="3fZJjKLncM8EVCZoAQM8-81" target="3fZJjKLncM8EVCZoAQM8-91" edge="1">
          <mxGeometry relative="1" as="geometry">
            <mxPoint x="870" y="628.2857142857142" as="targetPoint" />
            <mxPoint x="850" y="608" as="sourcePoint" />
          </mxGeometry>
        </mxCell>
        <mxCell unidadeId="3fZJjKLncM8EVCZoAQM8-81" value="Marca" style="whiteSpace=wrap;html=1;" parent="1" vertex="1">
          <mxGeometry x="710" y="560" width="120" height="80" as="geometry" />
        </mxCell>
        <mxCell unidadeId="Jcm4aYiwaMw8JLBFLebt-11" style="edgeStyle=orthogonalEdgeStyle;rounded=0;orthogonalLoop=1;jettySize=auto;html=1;entryX=0.75;entryY=1;entryDx=0;entryDy=0;exitX=0;exitY=0.5;exitDx=0;exitDy=0;endArrow=none;endFill=0;" edge="1" parent="1" source="3fZJjKLncM8EVCZoAQM8-82" target="3fZJjKLncM8EVCZoAQM8-6">
          <mxGeometry relative="1" as="geometry" />
        </mxCell>
        <mxCell unidadeId="Jcm4aYiwaMw8JLBFLebt-12" style="edgeStyle=orthogonalEdgeStyle;rounded=0;orthogonalLoop=1;jettySize=auto;html=1;entryX=0.5;entryY=0;entryDx=0;entryDy=0;endArrow=none;endFill=0;exitX=1;exitY=0.5;exitDx=0;exitDy=0;" edge="1" parent="1" source="3fZJjKLncM8EVCZoAQM8-82" target="3fZJjKLncM8EVCZoAQM8-81">
          <mxGeometry relative="1" as="geometry" />
        </mxCell>
        <mxCell unidadeId="3fZJjKLncM8EVCZoAQM8-82" value="" style="shape=rhombus;perimeter=rhombusPerimeter;whiteSpace=wrap;html=1;align=center;direction=south;rotation=-90;" parent="1" vertex="1">
          <mxGeometry x="650" y="440" width="40" height="80" as="geometry" />
        </mxCell>
        <mxCell unidadeId="3fZJjKLncM8EVCZoAQM8-86" value="(1,1)" style="text;html=1;align=center;verticalAlign=middle;resizable=0;points=[];autosize=1;strokeColor=none;fillColor=none;" parent="1" vertex="1">
          <mxGeometry x="720" y="530" width="50" height="30" as="geometry" />
        </mxCell>
        <mxCell unidadeId="3fZJjKLncM8EVCZoAQM8-87" value="(1,N)" style="text;html=1;align=center;verticalAlign=middle;resizable=0;points=[];autosize=1;strokeColor=none;fillColor=none;" parent="1" vertex="1">
          <mxGeometry x="560" y="400" width="50" height="30" as="geometry" />
        </mxCell>
        <mxCell unidadeId="3fZJjKLncM8EVCZoAQM8-90" value="unidadeId" style="text;html=1;align=center;verticalAlign=middle;resizable=0;points=[];autosize=1;strokeColor=none;fillColor=none;" parent="1" vertex="1">
          <mxGeometry x="880" y="546" width="30" height="30" as="geometry" />
        </mxCell>
        <mxCell unidadeId="3fZJjKLncM8EVCZoAQM8-91" value="nome" style="text;html=1;align=center;verticalAlign=middle;resizable=0;points=[];autosize=1;strokeColor=none;fillColor=none;" parent="1" vertex="1">
          <mxGeometry x="880" y="565" width="50" height="30" as="geometry" />
        </mxCell>
        <mxCell unidadeId="3fZJjKLncM8EVCZoAQM8-95" value="Estoque API" style="text;html=1;align=center;verticalAlign=middle;resizable=0;points=[];autosize=1;strokeColor=none;fillColor=none;fontSize=28;" parent="1" vertex="1">
          <mxGeometry x="-120" y="-161" width="180" height="50" as="geometry" />
        </mxCell>
        <mxCell unidadeId="Jcm4aYiwaMw8JLBFLebt-30" style="edgeStyle=orthogonalEdgeStyle;rounded=0;orthogonalLoop=1;jettySize=auto;html=1;entryX=0.5;entryY=1;entryDx=0;entryDy=0;endArrow=none;endFill=0;" edge="1" parent="1" source="3fZJjKLncM8EVCZoAQM8-63" target="3fZJjKLncM8EVCZoAQM8-62">
          <mxGeometry relative="1" as="geometry" />
        </mxCell>
        <mxCell unidadeId="Jcm4aYiwaMw8JLBFLebt-31" value="" style="line;strokeWidth=2;direction=south;html=1;" vertex="1" parent="1">
          <mxGeometry x="-160" y="-200" width="10" height="1040" as="geometry" />
        </mxCell>
        <mxCell unidadeId="Jcm4aYiwaMw8JLBFLebt-33" value="" style="line;strokeWidth=2;direction=south;html=1;" vertex="1" parent="1">
          <mxGeometry x="1241" y="-200" width="10" height="1040" as="geometry" />
        </mxCell>
        <mxCell unidadeId="Jcm4aYiwaMw8JLBFLebt-34" value="" style="line;strokeWidth=2;html=1;" vertex="1" parent="1">
          <mxGeometry x="-160" y="830" width="1410" height="10" as="geometry" />
        </mxCell>
        <mxCell unidadeId="Jcm4aYiwaMw8JLBFLebt-35" value="" style="line;strokeWidth=2;html=1;" vertex="1" parent="1">
          <mxGeometry x="-159" y="-200" width="1410" height="10" as="geometry" />
        </mxCell>
      </root>
    </mxGraphModel>
  </diagram>
</mxfile>
